<mxfile host="65bd71144e">
    <diagram name="Aktivit채tsdiagramm R체ckgabe" id="0">
        <mxGraphModel dx="2520" dy="1125" grid="1" gridSize="10" guides="1" tooltips="1" connect="1" arrows="1" fold="1" page="1" pageScale="1" pageWidth="827" pageHeight="1169" math="0" shadow="0">
            <root>
                <mxCell id="0"/>
                <mxCell id="1" parent="0"/>
                <mxCell id="3" value="" style="group;aspect=fixed;" parent="1" vertex="1" connectable="0">
                    <mxGeometry x="40" y="100" width="768" height="992" as="geometry"/>
                </mxCell>
                <mxCell id="start" value="Start" style="ellipse;whiteSpace=wrap;html=1;fillColor=#60a917;strokeColor=#2D7600;fontColor=#ffffff;" parent="3" vertex="1">
                    <mxGeometry x="288" width="128" height="64" as="geometry"/>
                </mxCell>
                <mxCell id="inspection" value="Fahrzeug inspizieren" style="rounded=0;whiteSpace=wrap;html=1;fillColor=#a0522d;strokeColor=#6D1F00;fontColor=#ffffff;" parent="3" vertex="1">
                    <mxGeometry x="224" y="160" width="256" height="96" as="geometry"/>
                </mxCell>
                <mxCell id="decision_damage" value="Sch채den vorhanden?" style="rhombus;whiteSpace=wrap;html=1;fillColor=#8A7900;strokeColor=#B09500;fontColor=#FFFFFF;" parent="3" vertex="1">
                    <mxGeometry x="256" y="352" width="192" height="96" as="geometry"/>
                </mxCell>
                <mxCell id="end_contract" value="Mietvertrag beenden" style="rounded=0;whiteSpace=wrap;html=1;fillColor=#1ba1e2;strokeColor=#006EAF;fontColor=#ffffff;" parent="3" vertex="1">
                    <mxGeometry y="544" width="256" height="96" as="geometry"/>
                </mxCell>
                <mxCell id="damage_management" value="Schadensmanagement starten" style="rounded=0;whiteSpace=wrap;html=1;fillColor=#1ba1e2;strokeColor=#006EAF;fontColor=#ffffff;" parent="3" vertex="1">
                    <mxGeometry x="448" y="544" width="320" height="96" as="geometry"/>
                </mxCell>
                <mxCell id="documentation" value="R체ckgabe dokumentieren" style="rounded=0;whiteSpace=wrap;html=1;fillColor=#647687;strokeColor=#314354;fontColor=#ffffff;" parent="3" vertex="1">
                    <mxGeometry x="192" y="736" width="320" height="96" as="geometry"/>
                </mxCell>
                <mxCell id="end" value="Ende" style="ellipse;whiteSpace=wrap;html=1;fillColor=#a20025;strokeColor=#6F0000;fontColor=#ffffff;" parent="3" vertex="1">
                    <mxGeometry x="288" y="928" width="128" height="64" as="geometry"/>
                </mxCell>
                <mxCell id="e1" style="edgeStyle=orthogonalEdgeStyle;rounded=0;orthogonalLoop=1;jettySize=auto;html=1;" parent="3" source="start" target="inspection" edge="1">
                    <mxGeometry relative="1" as="geometry"/>
                </mxCell>
                <mxCell id="e2" style="edgeStyle=orthogonalEdgeStyle;rounded=0;orthogonalLoop=1;jettySize=auto;html=1;" parent="3" source="inspection" target="decision_damage" edge="1">
                    <mxGeometry relative="1" as="geometry"/>
                </mxCell>
                <mxCell id="e3" value="Nein" style="edgeStyle=orthogonalEdgeStyle;rounded=0;orthogonalLoop=1;jettySize=auto;html=1;" parent="3" source="decision_damage" target="end_contract" edge="1">
                    <mxGeometry relative="1" as="geometry">
                        <Array as="points">
                            <mxPoint x="128" y="400"/>
                        </Array>
                    </mxGeometry>
                </mxCell>
                <mxCell id="e4" value="Ja" style="edgeStyle=orthogonalEdgeStyle;rounded=0;orthogonalLoop=1;jettySize=auto;html=1;" parent="3" source="decision_damage" target="damage_management" edge="1">
                    <mxGeometry relative="1" as="geometry">
                        <Array as="points">
                            <mxPoint x="608" y="400"/>
                        </Array>
                    </mxGeometry>
                </mxCell>
                <mxCell id="e5" style="edgeStyle=orthogonalEdgeStyle;rounded=0;orthogonalLoop=1;jettySize=auto;html=1;" parent="3" source="end_contract" target="documentation" edge="1">
                    <mxGeometry relative="1" as="geometry"/>
                </mxCell>
                <mxCell id="e6" style="edgeStyle=orthogonalEdgeStyle;rounded=0;orthogonalLoop=1;jettySize=auto;html=1;" parent="3" source="damage_management" target="documentation" edge="1">
                    <mxGeometry relative="1" as="geometry"/>
                </mxCell>
                <mxCell id="e7" style="edgeStyle=orthogonalEdgeStyle;rounded=0;orthogonalLoop=1;jettySize=auto;html=1;" parent="3" source="documentation" target="end" edge="1">
                    <mxGeometry relative="1" as="geometry"/>
                </mxCell>
            </root>
        </mxGraphModel>
    </diagram>
</mxfile>